<svg width="49" height="46" viewBox="0 0 49 46" fill="none" xmlns="http://www.w3.org/2000/svg">
<path d="M19.2597 19.9196C19.2024 17.9204 19.262 15.8913 19.3196 14.5762C20.5616 15.1869 22.4633 16.153 24.2789 17.1992C25.3868 17.8375 26.4444 18.4952 27.2945 19.1116C28.1798 19.7535 28.7195 20.2666 28.9254 20.6013C29.1312 20.9359 29.3346 21.6313 29.4842 22.672C29.6277 23.6714 29.7057 24.86 29.7406 26.0799C29.7978 28.0791 29.7383 30.1082 29.6806 31.4233C28.4386 30.8126 26.537 29.8464 24.7213 28.8003C23.6135 28.162 22.5559 27.5043 21.7058 26.8879C20.8205 26.246 20.2807 25.7329 20.0749 25.3982C19.8691 25.0635 19.6656 24.3682 19.5161 23.3275C19.3725 22.3281 19.2946 21.1395 19.2597 19.9196Z" stroke="white" stroke-width="2"/>
<ellipse cx="24.5" cy="23" rx="18.375" ry="17.25" stroke="white" stroke-width="2"/>
</svg>
