<svg width="46" height="46" viewBox="0 0 46 46" fill="none" xmlns="http://www.w3.org/2000/svg">
<circle cx="23" cy="15.3333" r="6.66667" stroke="white" stroke-width="2" stroke-linecap="round"/>
<path d="M28.4697 14.875C29.0996 13.784 30.1371 12.9879 31.3539 12.6619C32.5708 12.3358 33.8673 12.5065 34.9583 13.1364C36.0493 13.7663 36.8454 14.8038 37.1715 16.0206C37.4975 17.2375 37.3268 18.534 36.697 19.625C36.0671 20.716 35.0296 21.5121 33.8127 21.8381C32.5959 22.1642 31.2993 21.9935 30.2083 21.3636C29.1173 20.7337 28.3212 19.6962 27.9952 18.4794C27.6691 17.2625 27.8398 15.966 28.4697 14.875L28.4697 14.875Z" stroke="white" stroke-width="2"/>
<path d="M9.30304 14.875C9.93293 13.784 10.9704 12.9879 12.1873 12.6619C13.4041 12.3358 14.7007 12.5065 15.7917 13.1364C16.8827 13.7663 17.6788 14.8038 18.0048 16.0206C18.3309 17.2375 18.1602 18.534 17.5303 19.625C16.9004 20.716 15.8629 21.5121 14.6461 21.8381C13.4292 22.1642 12.1327 21.9935 11.0417 21.3636C9.95066 20.7337 9.15457 19.6962 8.82852 18.4794C8.50246 17.2625 8.67315 15.966 9.30304 14.875L9.30304 14.875Z" stroke="white" stroke-width="2"/>
<path d="M32.3564 34.5L31.3761 34.6974L31.5378 35.5H32.3564V34.5ZM40.0201 33.3944L39.0528 33.6483V33.6483L40.0201 33.3944ZM28.3299 28.1952L27.7251 27.3989L26.5685 28.2773L27.8018 29.0444L28.3299 28.1952ZM39.1172 33.5H32.3564V35.5H39.1172V33.5ZM39.0528 33.6483C39.05 33.6374 39.0475 33.6142 39.0541 33.5858C39.0603 33.5591 39.072 33.5388 39.0831 33.5255C39.1051 33.499 39.1237 33.5 39.1172 33.5V35.5C40.2914 35.5 41.3268 34.434 40.9873 33.1405L39.0528 33.6483ZM32.5834 27.8333C34.7977 27.8333 36.2501 28.7777 37.2402 29.9599C38.2576 31.1748 38.7921 32.6551 39.0528 33.6483L40.9873 33.1406C40.6908 32.0111 40.059 30.2108 38.7735 28.6758C37.4606 27.1082 35.4732 25.8333 32.5834 25.8333V27.8333ZM28.9348 28.9915C29.8286 28.3126 31.0037 27.8333 32.5834 27.8333V25.8333C30.5598 25.8333 28.9612 26.46 27.7251 27.3989L28.9348 28.9915ZM27.8018 29.0444C30.1094 30.4796 31.0222 32.9399 31.3761 34.6974L33.3368 34.3026C32.9391 32.3279 31.855 29.21 28.858 27.346L27.8018 29.0444Z" fill="white"/>
<path d="M17.6701 28.1952L18.1982 29.0443L19.4315 28.2773L18.275 27.3988L17.6701 28.1952ZM5.97994 33.3944L5.01271 33.1405L5.97994 33.3944ZM13.6435 34.5V35.5H14.4622L14.6238 34.6974L13.6435 34.5ZM13.4167 27.8333C14.9963 27.8333 16.1714 28.3126 17.0652 28.9915L18.275 27.3988C17.0388 26.4599 15.4402 25.8333 13.4167 25.8333V27.8333ZM6.94717 33.6483C7.20789 32.6551 7.74238 31.1748 8.75986 29.9599C9.74998 28.7777 11.2024 27.8333 13.4167 27.8333V25.8333C10.5269 25.8333 8.53948 27.1082 7.22657 28.6758C5.94101 30.2108 5.3092 32.011 5.01271 33.1405L6.94717 33.6483ZM6.88278 33.5C6.87633 33.5 6.89492 33.499 6.91695 33.5255C6.92805 33.5388 6.93971 33.5591 6.94592 33.5858C6.95254 33.6142 6.95004 33.6374 6.94717 33.6483L5.01271 33.1405C4.67316 34.434 5.70862 35.5 6.88278 35.5V33.5ZM13.6435 33.5H6.88278V35.5H13.6435V33.5ZM14.6238 34.6974C14.9778 32.9399 15.8906 30.4795 18.1982 29.0443L17.142 27.346C14.145 29.2099 13.0609 32.3279 12.6632 34.3026L14.6238 34.6974Z" fill="white"/>
<path d="M23 26.8333C30.671 26.8333 32.2017 32.9736 32.5072 35.4241C32.5755 35.9722 32.1356 36.4167 31.5833 36.4167H14.4167C13.8644 36.4167 13.4245 35.9722 13.4928 35.4241C13.7983 32.9736 15.329 26.8333 23 26.8333Z" stroke="white" stroke-width="2" stroke-linecap="round"/>
</svg>
