<svg width="47" height="39" viewBox="0 0 49 41" fill="none" xmlns="http://www.w3.org/2000/svg">
<path d="M43 10L38.7292 12.601C38.4158 12.7919 38.0559 12.8929 37.6889 12.8929H27.4923C26.7979 12.8929 26.1533 13.253 25.7892 13.8442L25.0131 15.1047C24.448 16.0224 24.7117 17.2228 25.6093 17.8192L33.928 23.3461C35.8448 24.6195 36.8643 26.8771 36.5523 29.157L36.0132 33.097C35.9214 33.7677 35.7449 34.4241 35.4878 35.0504L34.6875 37" stroke="white" stroke-width="2"/>
<path d="M3 18.9167L14.2084 17.3822C15.573 17.1954 16.7136 18.4116 16.4397 19.7614L15.324 25.2604C14.9425 27.1406 15.9497 29.027 17.7244 29.7559L21.4749 31.2963C22.9064 31.8842 23.6558 33.4644 23.2052 34.9448L21.6667 40" stroke="white" stroke-width="2"/>
<path d="M48 21.5C48 31.5507 38.1092 40 25.5 40C12.8908 40 3 31.5507 3 21.5C3 11.4493 12.8908 3 25.5 3C38.1092 3 48 11.4493 48 21.5Z" stroke="white" stroke-width="2"/>
</svg>
