<svg width="48" height="48" viewBox="0 0 48 48" fill="none" xmlns="http://www.w3.org/2000/svg">
<path d="M47 24.0219C47.0071 28.9454 45.43 33.7402 42.5025 37.6951C42.4225 37.8066 42.339 37.9146 42.252 38.0226C42.1651 38.1306 42.1512 38.155 42.1025 38.2143C41.932 38.4338 41.7546 38.6498 41.5772 38.8624C41.3998 39.075 41.2294 39.2805 41.0346 39.4826C40.9129 39.6185 40.7911 39.7544 40.6624 39.8868L40.2763 40.2806L39.8833 40.6674L39.685 40.8486C37.2173 43.1458 34.2753 44.8709 31.0675 45.9015C27.8597 46.932 24.4648 47.2427 21.1237 46.8115C17.7826 46.3803 14.5771 45.2179 11.7348 43.4066C8.89247 41.5952 6.48288 39.1795 4.67701 36.3307C2.87113 33.4819 1.71323 30.2699 1.28546 26.9226C0.857684 23.5753 1.17052 20.1747 2.20177 16.962C3.23302 13.7494 4.95741 10.8035 7.2526 8.3333C9.54778 5.86312 12.3575 3.92921 15.4824 2.66879V2.66879C18.2009 1.5722 21.1051 1.0114 24.0358 1.01713C24.3279 1.01713 24.6167 1.01713 24.9088 1.03804C26.3402 1.08788 27.7635 1.27457 29.1594 1.59556V1.59556C31.0085 2.01916 32.7984 2.66988 34.4883 3.53295V3.53295C38.256 5.46147 41.4184 8.39554 43.6263 12.0112C45.8343 15.6268 47.0018 19.7834 47 24.0219V24.0219Z" stroke="white" stroke-width="1.6" stroke-miterlimit="10"/>
<path d="M35.6569 9.05602C35.6574 9.05951 35.6572 9.06306 35.6562 9.06643C35.6552 9.06981 35.6535 9.07292 35.6511 9.07557C35.6488 9.07822 35.646 9.08034 35.6428 9.08177C35.6396 9.08321 35.6361 9.08394 35.6326 9.0839C35.4726 9.0839 34.6169 9.0839 34.4325 8.67621C34.2304 8.28097 33.922 7.95025 33.5421 7.72146C33.1664 7.47057 32.6377 5.75271 32.2411 6.55763C32.1745 6.69829 32.1551 6.85677 32.1858 7.00938C32.2166 7.162 32.2958 7.30056 32.4116 7.40437C32.4345 7.41952 32.4538 7.43962 32.4679 7.46318C32.4821 7.48675 32.4909 7.51319 32.4935 7.54058C32.4962 7.56797 32.4927 7.59561 32.4834 7.62147C32.474 7.64734 32.459 7.67079 32.4394 7.6901C32.2585 7.93401 32.0324 7.92704 31.6394 8.03855C31.2463 8.15005 30.9437 9.90624 31.2915 9.82959C31.6394 9.75293 32.0811 9.43235 32.5681 9.59961C33.0551 9.76686 35.003 10.9516 34.3282 11.4569C34.2099 11.5474 33.3264 10.645 33.0412 10.5544C32.8464 10.4882 33.2812 11.1711 33.3473 11.3837C33.575 12.0176 33.6389 12.6989 33.5331 13.3642C33.4273 14.0295 33.1551 14.6572 32.742 15.1888C32.4881 15.5581 33.629 15.9554 33.5873 16.4676C33.5455 16.9798 33.2394 17.5791 32.9507 17.4781C32.662 17.377 32.9229 16.5826 32.5159 16.363C32.109 16.1435 31.3785 15.2794 31.0585 15.7672C30.7385 16.255 30.3419 17.4258 30.815 17.6837C31.2881 17.9415 32.0255 17.952 32.182 19.0775C32.3385 20.203 31.1072 23.5586 29.3993 24.0324C27.6914 24.5063 27.8271 24.9977 28.4045 25.5203C28.9819 26.043 30.0498 27.611 28.7871 28.4996C27.5245 29.3881 27.5836 28.1511 26.7453 27.8619C25.907 27.5727 25.8166 28.7993 26.3627 29.3916C26.9088 29.984 28.001 30.5555 27.9732 31.2489C27.9453 31.9423 27.6253 31.6635 27.1453 31.4614C26.6653 31.2593 26.7349 30.6286 26.0462 30.1687C25.3574 29.7087 25.674 28.632 25.2426 27.8062C24.8113 26.9803 24.0461 27.1894 23.5035 26.6528C22.9608 26.1162 23.3887 25.4332 22.7869 24.7921C22.1851 24.1509 20.926 23.7084 20.3312 24.7537C19.8414 25.6322 19.1286 26.3655 18.265 26.8793C17.6041 27.2626 18.5259 28.2731 17.9624 29.0327C17.7379 29.3524 17.4516 29.6237 17.1206 29.8307C17.0957 29.8445 17.068 29.8528 17.0396 29.8549C17.0111 29.8571 16.9826 29.853 16.9558 29.8431C16.9291 29.8332 16.9048 29.8176 16.8846 29.7974C16.8644 29.7772 16.8488 29.7529 16.8389 29.7261C16.5189 28.9108 15.3362 25.7852 15.4475 24.6248C15.5762 23.2833 12.2752 23.0707 11.1552 22.332C10.0352 21.5933 9.20036 19.2203 8.84904 19.4956C8.49773 19.7709 8.53251 22.5655 9.28036 22.5271C9.68661 22.4983 10.0949 22.5241 10.4943 22.6038V22.6038C10.5569 22.6874 11.4335 23.8478 10.5291 24.6945C9.62472 25.5412 7.06811 26.4995 6.64027 26.1475C6.21243 25.7956 6.40374 19.8754 5.89242 19.4155C5.3811 18.9555 5.49936 22.6839 5.49936 23.5133C5.49936 24.3426 5.70806 26.3845 6.09069 26.604C6.47331 26.8235 8.01423 27.6319 8.24728 27.2347C8.48033 26.8375 8.20902 30.3708 6.28548 31.5625C4.36193 32.7542 6.83506 36.5627 7.10985 37.2701C7.32203 37.8172 7.50987 39.3608 7.63509 40.0368C7.65248 40.1309 7.63509 40.1204 7.56204 40.0368C5.44036 37.8513 3.7736 35.2651 2.65869 32.4285C1.54378 29.592 1.00296 26.5616 1.06769 23.5138C1.13243 20.4659 1.80142 17.4614 3.03576 14.6749C4.27011 11.8883 6.04517 9.37549 8.25772 7.28241V7.28241C8.32381 7.25802 14.5188 5.05581 15.0266 5.65166C15.5345 6.24751 14.0492 7.82599 15.0266 7.60298C16.0041 7.37997 17.7224 6.70398 18.1572 7.07682C18.592 7.44966 19.0581 6.84684 19.8964 6.58899C20.7347 6.33114 22.6791 5.575 22.7452 5.54364C23.8645 5.69837 24.9998 5.69837 26.1192 5.54364C27.7123 5.28578 30.0567 3.5505 31.135 3.9094C32.2133 4.26831 32.9368 4.54358 33.2429 5.15337C33.549 5.76316 33.2638 6.17085 33.5664 6.49839C33.869 6.82594 34.3351 7.13954 34.6656 7.49496C34.996 7.85038 35.563 8.64137 35.6569 9.05602Z" stroke="white" stroke-width="1.6" stroke-miterlimit="10"/>
<path d="M34.5334 12.2479C34.5334 12.2479 34.9613 12.666 34.8326 12.8786C34.7039 13.0911 34.9752 13.7671 35.1039 13.8821C35.2302 14.047 35.3113 14.2421 35.3394 14.448C35.3675 14.6539 35.3414 14.8636 35.2639 15.0564C35.0343 15.5442 35.0482 15.9589 34.763 16.1714C34.4778 16.384 33.9177 17.1471 34.1612 17.506C34.4047 17.8649 34.6273 18.4224 34.7317 18.2796C34.836 18.1367 34.6621 17.52 34.9195 17.0914C35.1769 16.6628 35.7335 16.5025 36.0778 16.0146C36.2302 15.8317 36.3251 15.6077 36.3505 15.3708C36.3759 15.1338 36.3306 14.8947 36.2204 14.6836C36.0187 14.2375 35.4865 13.5093 35.2326 13.4953C34.9786 13.4814 34.9995 13.3211 35.2326 13.1469C35.4656 12.9727 35.6187 13.1748 35.7195 12.7462C35.8204 12.3176 35.6778 12.4291 35.5769 12.1155C35.4761 11.8019 35.2639 12.2026 34.9613 12.1155C34.6586 12.0284 34.5056 11.889 34.5334 12.2479Z" stroke="white" stroke-width="1.6" stroke-miterlimit="10"/>
<path d="M30.1994 31.1828C30.0254 31.5556 29.8272 32.1515 30.1994 32.5522C30.5716 32.9529 32.3629 33.5731 32.7873 33.1236C33.2116 32.6741 33.1838 31.3814 33.5838 31.0329C33.9838 30.6845 33.1595 30.0886 33.2221 29.6356C33.2847 29.1827 32.9264 28.4405 32.4777 28.7645C32.029 29.0886 31.7542 30.3082 31.2568 30.5834C30.7594 30.8587 30.1994 31.1828 30.1994 31.1828Z" stroke="white" stroke-width="1.6" stroke-miterlimit="10"/>
<path d="M37.984 30.0293C38.2761 29.4055 38.9718 30.5415 39.3753 30.0293C40.0501 29.2069 42.078 29.2313 42.5337 29.8655C42.8815 30.3394 42.7702 30.9109 43.2085 31.1339C43.6468 31.3569 43.8033 31.6112 43.2085 31.7297C42.6137 31.8482 42.2972 30.66 41.8589 31.2558C41.7238 31.4833 41.5325 31.672 41.3034 31.8039C41.0743 31.9357 40.8152 32.0062 40.551 32.0085C39.9562 32.0886 40.551 31.4544 40.2345 31.214C39.9179 30.9736 38.7979 31.3325 38.5996 30.9771C38.4014 30.6216 37.6535 30.7401 37.984 30.0293Z" stroke="white" stroke-width="1.6" stroke-miterlimit="10"/>
<path d="M42.4989 37.7091C42.4989 37.7091 43.0694 36.3153 42.8467 35.6184C42.6241 34.9215 41.4554 33.6113 41.4554 32.9214C41.4554 32.2315 41.0867 32.7506 41.031 33.681C40.9754 34.6114 40.9754 35.2246 40.4745 35.1584C39.9736 35.0922 39.7788 34.5347 39.6397 34.0713C39.5005 33.6078 38.2483 33.235 37.9666 34.0713C37.6848 34.9076 35.7195 37.0017 34.6238 37.6952C33.5282 38.3886 31.7855 38.4618 32.0638 39.8939C32.342 41.326 32.676 42.1275 32.5264 42.239C32.3768 42.3505 32.4325 42.5874 33.4169 42.0508C34.4012 41.5142 37.497 39.6326 37.89 40.1727C38.0905 40.4466 38.3665 40.6559 38.6842 40.7748C39.0019 40.8937 39.3473 40.9169 39.6779 40.8417C40.712 39.8862 41.6563 38.8376 42.4989 37.7091Z" stroke="white" stroke-width="1.6" stroke-miterlimit="10"/>
<path d="M8.27512 37.0018C8.27512 37.0018 8.97079 36.5872 8.97079 36.2596C8.97079 35.9321 9.12732 36.1621 9.41255 36.7022C9.69777 37.2423 9.56907 37.4409 9.70821 38.1239C9.84734 38.8068 10.3065 39.7616 10.15 39.8313C9.99344 39.901 8.97079 39.3748 8.80035 38.7092C8.62991 38.0437 8.70296 38.0576 8.36208 37.6186C8.0212 37.1796 8.08033 37.1621 8.27512 37.0018Z" stroke="white" stroke-width="1.6" stroke-miterlimit="10"/>
<path d="M18.2198 29.7401C18.2198 30.1583 18.0389 31.1339 18.5155 30.8621C18.992 30.5903 18.8633 30.5137 18.7659 30.1931C18.6403 29.9165 18.4962 29.6488 18.3346 29.3917C18.265 29.2349 18.2337 29.4474 18.2198 29.7401Z" stroke="white" stroke-width="1.6" stroke-miterlimit="10"/>
<path d="M23.7365 31.0747C23.7365 31.0747 25.7261 32.817 25.7435 33.1062C25.7609 33.3954 28.1088 35.0401 28.4428 34.9216C28.7767 34.8031 28.7906 34.1306 28.6375 33.817C28.4845 33.5034 26.8984 32.9076 26.6514 32.6915C26.2961 32.3788 25.9196 32.0912 25.5244 31.8308C25.1313 31.6009 23.9104 30.6635 23.7365 31.0747Z" stroke="white" stroke-width="1.6" stroke-miterlimit="10"/>
<path d="M29.4619 34.8206C29.4167 34.7927 29.6532 34.5592 29.8098 34.3676C29.9663 34.1759 30.8533 34.507 31.4655 34.4547C32.0777 34.4024 34.2482 34.1446 34.596 34.0749C34.9438 34.0052 35.3404 33.8693 35.4273 34.0749C35.5143 34.2805 34.1995 35.0122 33.3403 34.9251C32.4811 34.838 29.9871 35.1133 29.4619 34.8206Z" stroke="white" stroke-width="1.6" stroke-miterlimit="10"/>
<path d="M24.9087 1.03823C24.9087 1.1114 23.6252 1.48076 23.0582 1.67589C22.3278 1.93026 21.3816 1.89542 21.0895 2.22644C20.7973 2.55747 19.5938 2.88502 18.8633 2.85017C18.1328 2.81533 15.7606 3.43208 15.2493 3.50177C14.7379 3.57147 15.4232 2.74912 15.4893 2.66898C18.2056 1.57327 21.1074 1.01248 24.0356 1.01732C24.3278 1.01732 24.6165 1.0208 24.9087 1.03823Z" stroke="white" stroke-width="1.6" stroke-miterlimit="10"/>
<path d="M34.4256 3.60617C34.3212 3.85706 33.6464 3.8257 33.2429 3.85357C32.8394 3.88145 31.9281 2.80822 31.7229 2.91624C31.5176 3.02426 30.7315 2.93715 30.2689 2.91624C29.8689 2.90927 29.288 1.93361 29.128 1.65136C29.1251 1.64573 29.1236 1.63946 29.1238 1.63312C29.1239 1.62678 29.1256 1.62058 29.1287 1.61505C29.1318 1.60953 29.1362 1.60486 29.1415 1.60147C29.1469 1.59808 29.153 1.59606 29.1593 1.59561V1.59561C31.062 1.97891 33.4551 2.88836 34.4186 3.60617H34.4256Z" stroke="white" stroke-width="1.6" stroke-miterlimit="10"/>
<path d="M6.20547 31.6322L7.27334 30.5869C7.3429 30.66 6.48375 31.3604 6.51853 31.3953L7.06116 30.8691" stroke="white" stroke-width="1.6" stroke-linecap="round" stroke-linejoin="round"/>
<path d="M18.265 26.8723C18.3624 26.9698 20.0042 25.0534 20.0703 25.13C20.1364 25.2067 18.5955 26.4228 18.7276 26.5587C19.0924 26.2423 19.4407 25.9073 19.7712 25.5551C19.7712 25.5551 18.8598 26.367 18.9085 26.4193C18.9085 26.4193 19.5833 25.6631 19.632 25.7224" stroke="white" stroke-width="1.6" stroke-linecap="round" stroke-linejoin="round"/>
</svg>
