<svg width="25" height="25" viewBox="0 0 33 30" fill="none" xmlns="http://www.w3.org/2000/svg">
<g clip-path="url(#clip0_44_502)">
<path d="M16.1111 0C7.21224 0 0 6.71484 0 15C0 21.3574 4.24805 26.7832 10.2394 28.9688C10.1009 27.7793 9.96875 25.9629 10.296 24.668C10.5918 23.4961 12.184 17.2148 12.184 17.2148C12.184 17.2148 11.6994 16.3184 11.6994 14.9883C11.6994 12.9023 12.9959 11.3438 14.6133 11.3438C15.9852 11.3438 16.6523 12.3047 16.6523 13.459C16.6523 14.748 15.7713 16.6699 15.3181 18.4512C14.9405 19.9453 16.1237 21.1641 17.7033 21.1641C20.5668 21.1641 22.7695 18.3516 22.7695 14.2969C22.7695 10.7051 20.0004 8.19141 16.0419 8.19141C11.4603 8.19141 8.76671 11.3906 8.76671 14.7012C8.76671 15.9902 9.30165 17.373 9.96875 18.123C10.1009 18.2695 10.1198 18.4043 10.082 18.5508C9.96246 19.0254 9.68555 20.0449 9.6352 20.25C9.56597 20.5254 9.40234 20.584 9.09397 20.4492C7.08008 19.5762 5.8214 16.8398 5.8214 14.6367C5.8214 9.90234 9.51563 5.56055 16.4635 5.56055C22.0521 5.56055 26.3945 9.26953 26.3945 14.2266C26.3945 19.3945 22.8954 23.5547 18.0369 23.5547C16.4069 23.5547 14.8713 22.7637 14.3427 21.832C14.3427 21.832 13.5371 24.6973 13.342 25.4004C12.977 26.7012 11.9952 28.3359 11.3407 29.332C12.8511 29.7656 14.4497 30 16.1111 30C25.01 30 32.2222 23.2852 32.2222 15C32.2222 6.71484 25.01 0 16.1111 0Z" fill="white"/>
</g>
<defs>
<clipPath id="clip0_44_502">
<rect width="32.2222" height="30" fill="white"/>
</clipPath>
</defs>
</svg>
